# xmcd CD Database Entry
#
# Track frame offsets:
# 150
# 9690
# 14254
# 20506
# 34077
# 50971
# 66329
# 75002
# 80224
# 180115
# 186573
# 192679
# 200501
# 228858
# 245469
# 258752
# 264395
# 268223
# 271656
#
# Disc length: 3709 seconds
#
# Revision: 2
# Processed by: cddbd v1.4PL0 Copyright (c) Steve Scherf et al.
# Submitted via: tcd 2.0b
#
DISCID=050e7b13
DTITLE=Stale Urine - Stale Urine in the Caves of Nuclear Fire
DYEAR=1900
DGENRE=
TTITLE0=Pink Tornado
TTITLE1=Groping Ayn Rand
TTITLE2=Backpack
TTITLE3=Death in Venice
TTITLE4=From the Air
TTITLE5=Joey dB
TTITLE6=Hello, Mr. Bicyclist!
TTITLE7=Movin' On Up
TTITLE8=China Cat Sunflower
TTITLE9=Old Garbagemen Never Die (They Just Sober Up)
TTITLE10=Beatnik Jubilee
TTITLE11=Kicker of Elves
TTITLE12=John Denver, Poet Laureate of Colorado
TTITLE13=Jambalaya
TTITLE14=Heart of Glass
TTITLE15=David Left Me Standing at the Altar (Hoedown Mix)
TTITLE16=David Left Me Standing at the Altar (Ozark Huff Mix)
TTITLE17=Boplicity
TTITLE18=Boplicity (Jazz Mix)
EXTD=
EXTT0=
EXTT1=
EXTT2=
EXTT3=
EXTT4=
EXTT5=
EXTT6=
EXTT7=
EXTT8=
EXTT9=
EXTT10=
EXTT11=
EXTT12=
EXTT13=
EXTT14=
EXTT15=
EXTT16=
EXTT17=
EXTT18=
PLAYORDER=
